<svg xmlns="http://www.w3.org/2000/svg" viewBox="0 0 64 64" width="64" height="64">
  <!-- Sfondo blu con angoli arrotondati -->
  <rect width="64" height="64" rx="8" fill="#0070d2" />
  <!-- Icona documento piegato -->
  <path d="M16 8h28l14 14v34a6 6 0 0 1-6 6H16a6 6 0 0 1-6-6V14a6 6 0 0 1 6-6z" fill="#ffffff" opacity="0.15"/>
  <path d="M16 8h28l14 14v34a6 6 0 0 1-6 6H16a6 6 0 0 1-6-6V14a6 6 0 0 1 6-6z" fill="none" stroke="#ffffff" stroke-width="2"/>
  <!-- Scritta PDF -->
  <text x="32" y="45" font-size="20" fill="#ffffff" text-anchor="middle" font-family="Arial, sans-serif" font-weight="bold">PDF</text>
</svg>
